<?xml version="1.0" encoding="utf-8"?>
<!-- Svg Vector Icons : http://www.onlinewebfonts.com/icon -->
<!DOCTYPE svg PUBLIC "-//W3C//DTD SVG 1.1//EN" "http://www.w3.org/Graphics/SVG/1.1/DTD/svg11.dtd">
<svg version="1.1" xmlns="http://www.w3.org/2000/svg" xmlns:xlink="http://www.w3.org/1999/xlink" x="0px" y="0px" viewBox="0 0 256 256" enable-background="new 0 0 256 256" xml:space="preserve">
<metadata> Svg Vector Icons : http://www.onlinewebfonts.com/icon </metadata>
<g><g><g><path fill="#000000" d="M85.4,10.4c-30.8,3.8-58.1,25.2-69.7,54.4c-4.8,12.1-6.8,29.3-5.1,42.7c5.1,38.6,36.4,69.4,75.1,74.2c3.1,0.3,6.7,0.7,7.9,0.7h2.2v-14.2V154h-2.6c-6.4,0-16.6-2.8-23.8-6.5c-11.1-5.8-19.3-14.3-25-25.6c-5-10.1-5.7-13.5-5.7-26.4c0.1-10.4,0.1-11.1,2.2-17.2c3.2-9.2,7.5-16.2,14.3-23c6.8-6.8,13.9-11.2,23-14.3c5.6-1.9,7.6-2.2,15.6-2.5c11.2-0.3,18.1,1.1,27.5,5.6c17.9,8.7,29.8,25.5,32.2,45.4l0.7,6.3h14.1h14.1l-0.5-6c-3.2-40.1-32.9-72.6-72.2-78.9C104.3,10.1,90.7,9.7,85.4,10.4z"/><path fill="#000000" d="M127.8,127.7c-0.5,0.5-0.8,1.5-0.8,2.4c0,2.4,25.6,104.5,26.5,105.5c1.8,2.2,3.7,0.8,18.5-14l14.9-14.9l19.6,19.6l19.6,19.6l10-10l9.9-9.9l-19.3-19.3c-10.6-10.6-19.3-19.5-19.3-19.9c0-0.4,6.6-7.2,14.5-15.2c14.5-14.5,15.9-16.3,13.7-18.1c-1-0.9-103.1-26.5-105.5-26.5C129.3,126.9,128.3,127.3,127.8,127.7z"/></g></g></g>
</svg>