<?xml version="1.0" encoding="utf-8"?>
<!-- Generator: Adobe Illustrator 27.7.0, SVG Export Plug-In . SVG Version: 6.00 Build 0)  -->
<svg version="1.1" id="Layer_1" xmlns="http://www.w3.org/2000/svg" xmlns:xlink="http://www.w3.org/1999/xlink" x="0px" y="0px"
	 viewBox="0 0 512 512" style="enable-background:new 0 0 512 512;" xml:space="preserve">
<g>
	<path d="M486.43,230.43h-51.14c-3.04-0.02-6.75-1.32-10.99-5.99c-4.11-4.59-7.77-12.29-8.56-21.79l0,0.02
		c-3.95-44.76-8.46-84.42-20.34-116.58c-6.04-16.03-14.16-30.72-26.92-42.18c-12.62-11.54-30.33-18.27-48.52-18.06
		c-10.2-0.04-20.4,2.41-29.22,7.04c-15.61,8.18-26.17,21.67-33.76,36.56c-11.34,22.56-17.36,50.02-21.3,81.62
		c-3.84,31.56-5.21,67.21-5.22,104.92c0.07,55.44-3.34,105.3-11.97,138.24c-4.18,16.45-9.82,28.32-14.69,34.15
		c-2.42,2.97-4.43,4.48-6.06,5.33c-1.66,0.82-3.06,1.24-5.64,1.28c-7.38-0.21-10.31-1.63-14.47-5.07
		c-6.13-5.06-13.73-19.22-18.86-41.4c-5.3-22-8.7-50.92-11.49-83.58l0-0.03c-1.75-19.75-9.17-37.64-21.25-51.32
		c-11.95-13.61-29.52-23.2-49.31-23.18H25.57C11.45,230.43,0,241.88,0,256c0,14.12,11.45,25.57,25.57,25.57h51.14
		c3.13,0.02,6.82,1.33,11.04,5.97c4.09,4.56,7.76,12.24,8.57,21.83l0-0.03c3.96,44.8,8.47,84.46,20.35,116.61
		c6.04,16.03,14.16,30.71,26.92,42.16c12.62,11.53,30.32,18.25,48.51,18.04c10.2,0.04,20.4-2.41,29.22-7.04
		c15.61-8.18,26.17-21.67,33.76-36.56c11.34-22.56,17.36-50.02,21.3-81.62c3.84-31.56,5.21-67.21,5.22-104.92
		c-0.07-55.44,3.34-105.3,11.97-138.24c4.18-16.45,9.82-28.32,14.69-34.15c2.42-2.97,4.43-4.48,6.06-5.33
		c1.66-0.82,3.06-1.24,5.64-1.28c7.38,0.21,10.3,1.63,14.47,5.08c6.13,5.07,13.75,19.24,18.87,41.42c5.3,22,8.69,50.91,11.47,83.54
		l0,0.02c1.74,19.73,9.16,37.6,21.22,51.28c11.93,13.6,29.47,23.25,49.29,23.23l51.14,0c14.12,0,25.57-11.45,25.57-25.57
		C512,241.88,500.55,230.43,486.43,230.43z"/>
</g>
</svg>
